<?xml version="1.0" encoding="iso-8859-1"?>
<!-- Generator: Adobe Illustrator 19.0.0, SVG Export Plug-In . SVG Version: 6.00 Build 0)  -->
<svg xmlns="http://www.w3.org/2000/svg" xmlns:xlink="http://www.w3.org/1999/xlink" version="1.1" id="Capa_1" x="0px" y="0px" viewBox="0 0 512.001 512.001" style="enable-background:new 0 0 512.001 512.001;" xml:space="preserve" width="512px" height="512px">
<g>
	<g>
		<path d="M506.663,206.474l-45.662-38.453V15c0-8.284-6.716-15-15-15h-86.586c-8.284,0-15,6.716-15,15v54.843L265.663,3.526    c-5.584-4.701-13.74-4.701-19.324,0l-241,202.947c-6.337,5.336-7.148,14.799-1.812,21.136c5.335,6.338,14.798,7.148,21.136,1.812    l26.338-22.179V497c0,8.284,6.716,15,15,15c5.5,0,374.436,0,379.999,0c8.284,0,15-6.716,15-15V207.242l26.338,22.179    c6.341,5.339,15.804,4.521,21.136-1.812C513.811,221.272,513,211.81,506.663,206.474z M301.001,482h-90V321h90V482z M431.001,482    h-100V306c0-8.284-6.716-15-15-15h-120c-8.284,0-15,6.716-15,15v176h-100V181.979l175-147.369    c7.123,5.998,166.065,139.844,175,147.368V482z M431.001,142.758l-56.586-47.651V30h56.586V142.758z" fill="#FFFFFF"/>
	</g>
</g>
<g>
</g>
<g>
</g>
<g>
</g>
<g>
</g>
<g>
</g>
<g>
</g>
<g>
</g>
<g>
</g>
<g>
</g>
<g>
</g>
<g>
</g>
<g>
</g>
<g>
</g>
<g>
</g>
<g>
</g>
</svg>
